ISO-10303-21;
HEADER;
/* Generated by software containing ST-Developer
 * from STEP Tools, Inc. (www.steptools.com) 
 */

FILE_DESCRIPTION(
/* description */ (''),
/* implementation_level */ '2;1');

FILE_NAME(
/* name */ 
'D:/ES/Toy leon/Tooth Brush/CAD/Piezo 15mm/Murata Piezo 7BB-15 v2.step',

/* time_stamp */ '2018-12-13T12:51:21+05:00',
/* author */ ('mudaser_awan'),
/* organization */ (''),
/* preprocessor_version */ 'ST-DEVELOPER v17.2',
/* originating_system */ 'Autodesk Translation Framework v7.6.0.251',
/* authorisation */ '');

FILE_SCHEMA (('AUTOMOTIVE_DESIGN { 1 0 10303 214 3 1 1 }'));
ENDSEC;

DATA;
#10=MECHANICAL_DESIGN_GEOMETRIC_PRESENTATION_REPRESENTATION('',(#19,#20,
#21,#22,#23),#486);
#11=SHAPE_REPRESENTATION_RELATIONSHIP('SRR','None',#493,#12);
#12=ADVANCED_BREP_SHAPE_REPRESENTATION('',(#24,#25,#26,#27,#28),#485);
#13=(
BOUNDED_SURFACE()
B_SPLINE_SURFACE(2,2,((#407,#408,#409,#410,#411,#412,#413,#414,#415),(#416,
#417,#418,#419,#420,#421,#422,#423,#424),(#425,#426,#427,#428,#429,#430,
#431,#432,#433)),.UNSPECIFIED.,.F.,.T.,.F.)
B_SPLINE_SURFACE_WITH_KNOTS((3,3),(3,2,2,2,3),(0.,1.5707963267949),(-3.14159265358979,
-1.5707963267949,0.,1.5707963267949,3.14159265358979),.UNSPECIFIED.)
GEOMETRIC_REPRESENTATION_ITEM()
RATIONAL_B_SPLINE_SURFACE(((1.,0.707106781186548,1.,0.707106781186548,1.,
0.707106781186548,1.,0.707106781186548,1.),(0.707106781186547,0.5,0.707106781186547,
0.5,0.707106781186547,0.5,0.707106781186547,0.5,0.707106781186547),(1.,
0.707106781186548,1.,0.707106781186548,1.,0.707106781186548,1.,0.707106781186548,
1.)))
REPRESENTATION_ITEM('')
SURFACE()
);
#14=(
BOUNDED_SURFACE()
B_SPLINE_SURFACE(2,2,((#445,#446,#447,#448,#449,#450,#451,#452,#453),(#454,
#455,#456,#457,#458,#459,#460,#461,#462),(#463,#464,#465,#466,#467,#468,
#469,#470,#471)),.UNSPECIFIED.,.F.,.T.,.F.)
B_SPLINE_SURFACE_WITH_KNOTS((3,3),(3,2,2,2,3),(0.,1.5707963267949),(-3.14159265358979,
-1.5707963267949,0.,1.5707963267949,3.14159265358979),.UNSPECIFIED.)
GEOMETRIC_REPRESENTATION_ITEM()
RATIONAL_B_SPLINE_SURFACE(((1.,0.707106781186548,1.,0.707106781186548,1.,
0.707106781186548,1.,0.707106781186548,1.),(0.707106781186547,0.5,0.707106781186547,
0.5,0.707106781186547,0.5,0.707106781186547,0.5,0.707106781186547),(1.,
0.707106781186548,1.,0.707106781186548,1.,0.707106781186548,1.,0.707106781186548,
1.)))
REPRESENTATION_ITEM('')
SURFACE()
);
#15=TOROIDAL_SURFACE('',#257,7.32679491924311,0.2);
#16=TOROIDAL_SURFACE('',#264,7.3,0.2);
#17=FACE_BOUND('',#62,.T.);
#18=FACE_BOUND('',#64,.T.);
#19=STYLED_ITEM('',(#503),#24);
#20=STYLED_ITEM('',(#504),#25);
#21=STYLED_ITEM('',(#505),#26);
#22=STYLED_ITEM('',(#502),#27);
#23=STYLED_ITEM('',(#502),#28);
#24=MANIFOLD_SOLID_BREP('Body3',#226);
#25=MANIFOLD_SOLID_BREP('Body2',#227);
#26=MANIFOLD_SOLID_BREP('Body1',#228);
#27=MANIFOLD_SOLID_BREP('Body4',#229);
#28=MANIFOLD_SOLID_BREP('Body5',#230);
#29=PLANE('',#247);
#30=PLANE('',#248);
#31=PLANE('',#255);
#32=PLANE('',#256);
#33=PLANE('',#263);
#34=PLANE('',#268);
#35=PLANE('',#274);
#36=PLANE('',#275);
#37=PLANE('',#281);
#38=PLANE('',#282);
#39=FACE_OUTER_BOUND('',#56,.T.);
#40=FACE_OUTER_BOUND('',#57,.T.);
#41=FACE_OUTER_BOUND('',#58,.T.);
#42=FACE_OUTER_BOUND('',#59,.T.);
#43=FACE_OUTER_BOUND('',#60,.T.);
#44=FACE_OUTER_BOUND('',#61,.T.);
#45=FACE_OUTER_BOUND('',#63,.T.);
#46=FACE_OUTER_BOUND('',#65,.T.);
#47=FACE_OUTER_BOUND('',#66,.T.);
#48=FACE_OUTER_BOUND('',#67,.T.);
#49=FACE_OUTER_BOUND('',#68,.T.);
#50=FACE_OUTER_BOUND('',#69,.T.);
#51=FACE_OUTER_BOUND('',#70,.T.);
#52=FACE_OUTER_BOUND('',#71,.T.);
#53=FACE_OUTER_BOUND('',#72,.T.);
#54=FACE_OUTER_BOUND('',#73,.T.);
#55=FACE_OUTER_BOUND('',#74,.T.);
#56=EDGE_LOOP('',(#152,#153,#154,#155));
#57=EDGE_LOOP('',(#156));
#58=EDGE_LOOP('',(#157));
#59=EDGE_LOOP('',(#158,#159,#160,#161));
#60=EDGE_LOOP('',(#162,#163,#164,#165));
#61=EDGE_LOOP('',(#166));
#62=EDGE_LOOP('',(#167));
#63=EDGE_LOOP('',(#168));
#64=EDGE_LOOP('',(#169));
#65=EDGE_LOOP('',(#170,#171,#172,#173,#174,#175));
#66=EDGE_LOOP('',(#176));
#67=EDGE_LOOP('',(#177,#178,#179,#180,#181,#182,#183));
#68=EDGE_LOOP('',(#184,#185));
#69=EDGE_LOOP('',(#186,#187,#188,#189,#190,#191));
#70=EDGE_LOOP('',(#192,#193));
#71=EDGE_LOOP('',(#194,#195));
#72=EDGE_LOOP('',(#196,#197,#198,#199,#200,#201));
#73=EDGE_LOOP('',(#202,#203));
#74=EDGE_LOOP('',(#204,#205));
#75=LINE('',#371,#78);
#76=LINE('',#379,#79);
#77=LINE('',#385,#80);
#78=VECTOR('',#289,4.5);
#79=VECTOR('',#300,0.3);
#80=VECTOR('',#307,5.);
#81=CIRCLE('',#245,4.5);
#82=CIRCLE('',#246,4.5);
#83=CIRCLE('',#250,0.3);
#84=CIRCLE('',#251,0.3);
#85=CIRCLE('',#253,5.);
#86=CIRCLE('',#254,5.);
#87=CIRCLE('',#258,7.32679491924311);
#88=CIRCLE('',#259,0.2);
#89=CIRCLE('',#260,7.5);
#90=CIRCLE('',#261,7.5);
#91=CIRCLE('',#262,7.5);
#92=CIRCLE('',#265,0.2);
#93=CIRCLE('',#266,7.3);
#94=CIRCLE('',#267,7.3);
#95=CIRCLE('',#269,0.0500000000000003);
#96=CIRCLE('',#270,0.25);
#97=CIRCLE('',#271,0.3);
#98=CIRCLE('',#272,0.3);
#99=CIRCLE('',#273,0.0500000000000003);
#100=CIRCLE('',#276,0.0500000000000003);
#101=CIRCLE('',#277,0.25);
#102=CIRCLE('',#278,0.3);
#103=CIRCLE('',#279,0.3);
#104=CIRCLE('',#280,0.0500000000000003);
#105=VERTEX_POINT('',#368);
#106=VERTEX_POINT('',#370);
#107=VERTEX_POINT('',#376);
#108=VERTEX_POINT('',#378);
#109=VERTEX_POINT('',#382);
#110=VERTEX_POINT('',#384);
#111=VERTEX_POINT('',#390);
#112=VERTEX_POINT('',#392);
#113=VERTEX_POINT('',#394);
#114=VERTEX_POINT('',#396);
#115=VERTEX_POINT('',#401);
#116=VERTEX_POINT('',#403);
#117=VERTEX_POINT('',#434);
#118=VERTEX_POINT('',#435);
#119=VERTEX_POINT('',#437);
#120=VERTEX_POINT('',#439);
#121=VERTEX_POINT('',#472);
#122=VERTEX_POINT('',#473);
#123=VERTEX_POINT('',#475);
#124=VERTEX_POINT('',#477);
#125=EDGE_CURVE('',#105,#105,#81,.T.);
#126=EDGE_CURVE('',#105,#106,#75,.T.);
#127=EDGE_CURVE('',#106,#106,#82,.T.);
#128=EDGE_CURVE('',#107,#107,#83,.T.);
#129=EDGE_CURVE('',#107,#108,#76,.T.);
#130=EDGE_CURVE('',#108,#108,#84,.T.);
#131=EDGE_CURVE('',#109,#109,#85,.T.);
#132=EDGE_CURVE('',#109,#110,#77,.T.);
#133=EDGE_CURVE('',#110,#110,#86,.T.);
#134=EDGE_CURVE('',#111,#111,#87,.T.);
#135=EDGE_CURVE('',#111,#112,#88,.T.);
#136=EDGE_CURVE('',#113,#112,#89,.T.);
#137=EDGE_CURVE('',#114,#113,#90,.T.);
#138=EDGE_CURVE('',#112,#114,#91,.T.);
#139=EDGE_CURVE('',#113,#115,#92,.T.);
#140=EDGE_CURVE('',#115,#116,#93,.T.);
#141=EDGE_CURVE('',#116,#115,#94,.T.);
#142=EDGE_CURVE('',#117,#118,#95,.T.);
#143=EDGE_CURVE('',#118,#119,#96,.T.);
#144=EDGE_CURVE('',#120,#119,#97,.T.);
#145=EDGE_CURVE('',#119,#120,#98,.T.);
#146=EDGE_CURVE('',#118,#117,#99,.T.);
#147=EDGE_CURVE('',#121,#122,#100,.T.);
#148=EDGE_CURVE('',#122,#123,#101,.T.);
#149=EDGE_CURVE('',#124,#123,#102,.T.);
#150=EDGE_CURVE('',#123,#124,#103,.T.);
#151=EDGE_CURVE('',#122,#121,#104,.T.);
#152=ORIENTED_EDGE('',*,*,#125,.F.);
#153=ORIENTED_EDGE('',*,*,#126,.T.);
#154=ORIENTED_EDGE('',*,*,#127,.F.);
#155=ORIENTED_EDGE('',*,*,#126,.F.);
#156=ORIENTED_EDGE('',*,*,#127,.T.);
#157=ORIENTED_EDGE('',*,*,#125,.T.);
#158=ORIENTED_EDGE('',*,*,#128,.F.);
#159=ORIENTED_EDGE('',*,*,#129,.T.);
#160=ORIENTED_EDGE('',*,*,#130,.F.);
#161=ORIENTED_EDGE('',*,*,#129,.F.);
#162=ORIENTED_EDGE('',*,*,#131,.F.);
#163=ORIENTED_EDGE('',*,*,#132,.T.);
#164=ORIENTED_EDGE('',*,*,#133,.F.);
#165=ORIENTED_EDGE('',*,*,#132,.F.);
#166=ORIENTED_EDGE('',*,*,#133,.T.);
#167=ORIENTED_EDGE('',*,*,#130,.T.);
#168=ORIENTED_EDGE('',*,*,#131,.T.);
#169=ORIENTED_EDGE('',*,*,#128,.T.);
#170=ORIENTED_EDGE('',*,*,#134,.T.);
#171=ORIENTED_EDGE('',*,*,#135,.T.);
#172=ORIENTED_EDGE('',*,*,#136,.F.);
#173=ORIENTED_EDGE('',*,*,#137,.F.);
#174=ORIENTED_EDGE('',*,*,#138,.F.);
#175=ORIENTED_EDGE('',*,*,#135,.F.);
#176=ORIENTED_EDGE('',*,*,#134,.F.);
#177=ORIENTED_EDGE('',*,*,#137,.T.);
#178=ORIENTED_EDGE('',*,*,#139,.T.);
#179=ORIENTED_EDGE('',*,*,#140,.T.);
#180=ORIENTED_EDGE('',*,*,#141,.T.);
#181=ORIENTED_EDGE('',*,*,#139,.F.);
#182=ORIENTED_EDGE('',*,*,#136,.T.);
#183=ORIENTED_EDGE('',*,*,#138,.T.);
#184=ORIENTED_EDGE('',*,*,#141,.F.);
#185=ORIENTED_EDGE('',*,*,#140,.F.);
#186=ORIENTED_EDGE('',*,*,#142,.T.);
#187=ORIENTED_EDGE('',*,*,#143,.T.);
#188=ORIENTED_EDGE('',*,*,#144,.F.);
#189=ORIENTED_EDGE('',*,*,#145,.F.);
#190=ORIENTED_EDGE('',*,*,#143,.F.);
#191=ORIENTED_EDGE('',*,*,#146,.T.);
#192=ORIENTED_EDGE('',*,*,#142,.F.);
#193=ORIENTED_EDGE('',*,*,#146,.F.);
#194=ORIENTED_EDGE('',*,*,#144,.T.);
#195=ORIENTED_EDGE('',*,*,#145,.T.);
#196=ORIENTED_EDGE('',*,*,#147,.T.);
#197=ORIENTED_EDGE('',*,*,#148,.T.);
#198=ORIENTED_EDGE('',*,*,#149,.F.);
#199=ORIENTED_EDGE('',*,*,#150,.F.);
#200=ORIENTED_EDGE('',*,*,#148,.F.);
#201=ORIENTED_EDGE('',*,*,#151,.T.);
#202=ORIENTED_EDGE('',*,*,#147,.F.);
#203=ORIENTED_EDGE('',*,*,#151,.F.);
#204=ORIENTED_EDGE('',*,*,#149,.T.);
#205=ORIENTED_EDGE('',*,*,#150,.T.);
#206=CYLINDRICAL_SURFACE('',#244,4.5);
#207=CYLINDRICAL_SURFACE('',#249,0.3);
#208=CYLINDRICAL_SURFACE('',#252,5.);
#209=ADVANCED_FACE('',(#39),#206,.T.);
#210=ADVANCED_FACE('',(#40),#29,.T.);
#211=ADVANCED_FACE('',(#41),#30,.F.);
#212=ADVANCED_FACE('',(#42),#207,.F.);
#213=ADVANCED_FACE('',(#43),#208,.T.);
#214=ADVANCED_FACE('',(#44,#17),#31,.T.);
#215=ADVANCED_FACE('',(#45,#18),#32,.F.);
#216=ADVANCED_FACE('',(#46),#15,.T.);
#217=ADVANCED_FACE('',(#47),#33,.T.);
#218=ADVANCED_FACE('',(#48),#16,.T.);
#219=ADVANCED_FACE('',(#49),#34,.F.);
#220=ADVANCED_FACE('',(#50),#13,.F.);
#221=ADVANCED_FACE('',(#51),#35,.F.);
#222=ADVANCED_FACE('',(#52),#36,.T.);
#223=ADVANCED_FACE('',(#53),#14,.F.);
#224=ADVANCED_FACE('',(#54),#37,.F.);
#225=ADVANCED_FACE('',(#55),#38,.T.);
#226=CLOSED_SHELL('',(#209,#210,#211));
#227=CLOSED_SHELL('',(#212,#213,#214,#215));
#228=CLOSED_SHELL('',(#216,#217,#218,#219));
#229=CLOSED_SHELL('',(#220,#221,#222));
#230=CLOSED_SHELL('',(#223,#224,#225));
#231=DERIVED_UNIT_ELEMENT(#233,1.);
#232=DERIVED_UNIT_ELEMENT(#488,3.);
#233=(
MASS_UNIT()
NAMED_UNIT(*)
SI_UNIT(.KILO.,.GRAM.)
);
#234=DERIVED_UNIT((#231,#232));
#235=MEASURE_REPRESENTATION_ITEM('density measure',
POSITIVE_RATIO_MEASURE(7850.),#234);
#236=PROPERTY_DEFINITION_REPRESENTATION(#241,#238);
#237=PROPERTY_DEFINITION_REPRESENTATION(#242,#239);
#238=REPRESENTATION('material name',(#240),#485);
#239=REPRESENTATION('density',(#235),#485);
#240=DESCRIPTIVE_REPRESENTATION_ITEM('Steel','Steel');
#241=PROPERTY_DEFINITION('material property','material name',#495);
#242=PROPERTY_DEFINITION('material property','density of part',#495);
#243=AXIS2_PLACEMENT_3D('placement',#366,#283,#284);
#244=AXIS2_PLACEMENT_3D('',#367,#285,#286);
#245=AXIS2_PLACEMENT_3D('',#369,#287,#288);
#246=AXIS2_PLACEMENT_3D('',#372,#290,#291);
#247=AXIS2_PLACEMENT_3D('',#373,#292,#293);
#248=AXIS2_PLACEMENT_3D('',#374,#294,#295);
#249=AXIS2_PLACEMENT_3D('',#375,#296,#297);
#250=AXIS2_PLACEMENT_3D('',#377,#298,#299);
#251=AXIS2_PLACEMENT_3D('',#380,#301,#302);
#252=AXIS2_PLACEMENT_3D('',#381,#303,#304);
#253=AXIS2_PLACEMENT_3D('',#383,#305,#306);
#254=AXIS2_PLACEMENT_3D('',#386,#308,#309);
#255=AXIS2_PLACEMENT_3D('',#387,#310,#311);
#256=AXIS2_PLACEMENT_3D('',#388,#312,#313);
#257=AXIS2_PLACEMENT_3D('',#389,#314,#315);
#258=AXIS2_PLACEMENT_3D('',#391,#316,#317);
#259=AXIS2_PLACEMENT_3D('',#393,#318,#319);
#260=AXIS2_PLACEMENT_3D('',#395,#320,#321);
#261=AXIS2_PLACEMENT_3D('',#397,#322,#323);
#262=AXIS2_PLACEMENT_3D('',#398,#324,#325);
#263=AXIS2_PLACEMENT_3D('',#399,#326,#327);
#264=AXIS2_PLACEMENT_3D('',#400,#328,#329);
#265=AXIS2_PLACEMENT_3D('',#402,#330,#331);
#266=AXIS2_PLACEMENT_3D('',#404,#332,#333);
#267=AXIS2_PLACEMENT_3D('',#405,#334,#335);
#268=AXIS2_PLACEMENT_3D('',#406,#336,#337);
#269=AXIS2_PLACEMENT_3D('',#436,#338,#339);
#270=AXIS2_PLACEMENT_3D('',#438,#340,#341);
#271=AXIS2_PLACEMENT_3D('',#440,#342,#343);
#272=AXIS2_PLACEMENT_3D('',#441,#344,#345);
#273=AXIS2_PLACEMENT_3D('',#442,#346,#347);
#274=AXIS2_PLACEMENT_3D('',#443,#348,#349);
#275=AXIS2_PLACEMENT_3D('',#444,#350,#351);
#276=AXIS2_PLACEMENT_3D('',#474,#352,#353);
#277=AXIS2_PLACEMENT_3D('',#476,#354,#355);
#278=AXIS2_PLACEMENT_3D('',#478,#356,#357);
#279=AXIS2_PLACEMENT_3D('',#479,#358,#359);
#280=AXIS2_PLACEMENT_3D('',#480,#360,#361);
#281=AXIS2_PLACEMENT_3D('',#481,#362,#363);
#282=AXIS2_PLACEMENT_3D('',#482,#364,#365);
#283=DIRECTION('axis',(0.,0.,1.));
#284=DIRECTION('refdir',(1.,0.,0.));
#285=DIRECTION('center_axis',(0.,-1.,0.));
#286=DIRECTION('ref_axis',(1.,0.,0.));
#287=DIRECTION('center_axis',(0.,-1.,0.));
#288=DIRECTION('ref_axis',(1.,0.,0.));
#289=DIRECTION('',(0.,1.,0.));
#290=DIRECTION('center_axis',(0.,1.,0.));
#291=DIRECTION('ref_axis',(1.,0.,0.));
#292=DIRECTION('center_axis',(0.,1.,0.));
#293=DIRECTION('ref_axis',(1.,0.,0.));
#294=DIRECTION('center_axis',(0.,1.,0.));
#295=DIRECTION('ref_axis',(1.,0.,0.));
#296=DIRECTION('center_axis',(0.,-1.,0.));
#297=DIRECTION('ref_axis',(1.,0.,0.));
#298=DIRECTION('center_axis',(0.,1.,0.));
#299=DIRECTION('ref_axis',(1.,0.,0.));
#300=DIRECTION('',(0.,1.,0.));
#301=DIRECTION('center_axis',(0.,-1.,0.));
#302=DIRECTION('ref_axis',(1.,0.,0.));
#303=DIRECTION('center_axis',(0.,-1.,0.));
#304=DIRECTION('ref_axis',(1.,0.,0.));
#305=DIRECTION('center_axis',(0.,-1.,0.));
#306=DIRECTION('ref_axis',(1.,0.,0.));
#307=DIRECTION('',(0.,1.,0.));
#308=DIRECTION('center_axis',(0.,1.,0.));
#309=DIRECTION('ref_axis',(1.,0.,0.));
#310=DIRECTION('center_axis',(0.,1.,0.));
#311=DIRECTION('ref_axis',(1.,0.,0.));
#312=DIRECTION('center_axis',(0.,1.,0.));
#313=DIRECTION('ref_axis',(1.,0.,0.));
#314=DIRECTION('center_axis',(0.,1.,0.));
#315=DIRECTION('ref_axis',(-1.,0.,0.));
#316=DIRECTION('center_axis',(0.,-1.,0.));
#317=DIRECTION('ref_axis',(-1.,0.,0.));
#318=DIRECTION('center_axis',(1.22464679914735E-16,0.,-1.));
#319=DIRECTION('ref_axis',(1.,0.,1.22464679914735E-16));
#320=DIRECTION('center_axis',(0.,-1.,0.));
#321=DIRECTION('ref_axis',(1.,0.,0.));
#322=DIRECTION('center_axis',(0.,-1.,0.));
#323=DIRECTION('ref_axis',(1.,0.,0.));
#324=DIRECTION('center_axis',(0.,-1.,0.));
#325=DIRECTION('ref_axis',(1.,0.,0.));
#326=DIRECTION('center_axis',(0.,1.,0.));
#327=DIRECTION('ref_axis',(1.,0.,0.));
#328=DIRECTION('center_axis',(0.,1.,0.));
#329=DIRECTION('ref_axis',(0.,0.,1.));
#330=DIRECTION('center_axis',(-1.,0.,1.22464679914735E-16));
#331=DIRECTION('ref_axis',(-1.22464679914735E-16,0.,-1.));
#332=DIRECTION('center_axis',(0.,1.,0.));
#333=DIRECTION('ref_axis',(1.,0.,0.));
#334=DIRECTION('center_axis',(0.,1.,0.));
#335=DIRECTION('ref_axis',(1.,0.,0.));
#336=DIRECTION('center_axis',(0.,1.,0.));
#337=DIRECTION('ref_axis',(1.,0.,0.));
#338=DIRECTION('center_axis',(0.,1.,0.));
#339=DIRECTION('ref_axis',(1.,0.,0.));
#340=DIRECTION('center_axis',(-1.,0.,0.));
#341=DIRECTION('ref_axis',(0.,0.,1.));
#342=DIRECTION('center_axis',(0.,1.,0.));
#343=DIRECTION('ref_axis',(1.,0.,0.));
#344=DIRECTION('center_axis',(0.,1.,0.));
#345=DIRECTION('ref_axis',(1.,0.,0.));
#346=DIRECTION('center_axis',(0.,1.,0.));
#347=DIRECTION('ref_axis',(1.,0.,0.));
#348=DIRECTION('center_axis',(0.,1.,0.));
#349=DIRECTION('ref_axis',(1.,0.,0.));
#350=DIRECTION('center_axis',(0.,1.,0.));
#351=DIRECTION('ref_axis',(1.,0.,0.));
#352=DIRECTION('center_axis',(0.,1.,0.));
#353=DIRECTION('ref_axis',(1.,0.,0.));
#354=DIRECTION('center_axis',(-1.,0.,0.));
#355=DIRECTION('ref_axis',(0.,0.,1.));
#356=DIRECTION('center_axis',(0.,1.,0.));
#357=DIRECTION('ref_axis',(1.,0.,0.));
#358=DIRECTION('center_axis',(0.,1.,0.));
#359=DIRECTION('ref_axis',(1.,0.,0.));
#360=DIRECTION('center_axis',(0.,1.,0.));
#361=DIRECTION('ref_axis',(1.,0.,0.));
#362=DIRECTION('center_axis',(0.,1.,0.));
#363=DIRECTION('ref_axis',(1.,0.,0.));
#364=DIRECTION('center_axis',(0.,1.,0.));
#365=DIRECTION('ref_axis',(1.,0.,0.));
#366=CARTESIAN_POINT('',(0.,0.,0.));
#367=CARTESIAN_POINT('Origin',(0.,0.,0.));
#368=CARTESIAN_POINT('',(-4.5,-0.2,5.51091059616309E-16));
#369=CARTESIAN_POINT('Origin',(0.,-0.2,0.));
#370=CARTESIAN_POINT('',(-4.5,0.,5.51091059616309E-16));
#371=CARTESIAN_POINT('',(-4.5,0.,-5.51091059616309E-16));
#372=CARTESIAN_POINT('Origin',(0.,0.,0.));
#373=CARTESIAN_POINT('Origin',(0.,0.,0.));
#374=CARTESIAN_POINT('Origin',(0.,-0.2,0.));
#375=CARTESIAN_POINT('Origin',(3.24107995266847,0.,0.649129359016517));
#376=CARTESIAN_POINT('',(2.94107995266847,-0.1,0.649129359016517));
#377=CARTESIAN_POINT('Origin',(3.24107995266847,-0.1,0.649129359016517));
#378=CARTESIAN_POINT('',(2.94107995266847,0.,0.649129359016517));
#379=CARTESIAN_POINT('',(2.94107995266847,0.,0.649129359016517));
#380=CARTESIAN_POINT('Origin',(3.24107995266847,0.,0.649129359016517));
#381=CARTESIAN_POINT('Origin',(0.,0.,0.));
#382=CARTESIAN_POINT('',(-5.,-0.1,5.55111512312578E-16));
#383=CARTESIAN_POINT('Origin',(0.,-0.1,0.));
#384=CARTESIAN_POINT('',(-5.,0.,6.12323399573677E-16));
#385=CARTESIAN_POINT('',(-5.,0.,-6.12323399573677E-16));
#386=CARTESIAN_POINT('Origin',(0.,0.,0.));
#387=CARTESIAN_POINT('Origin',(0.,0.,0.));
#388=CARTESIAN_POINT('Origin',(0.,-0.1,0.));
#389=CARTESIAN_POINT('Origin',(0.,0.1,0.));
#390=CARTESIAN_POINT('',(7.32679491924311,0.3,8.97273594586017E-16));
#391=CARTESIAN_POINT('Origin',(0.,0.3,0.));
#392=CARTESIAN_POINT('',(7.5,0.2,9.18485099360515E-16));
#393=CARTESIAN_POINT('Origin',(7.32679491924311,0.1,8.97273594586017E-16));
#394=CARTESIAN_POINT('',(-9.18485099360515E-16,0.2,-7.5));
#395=CARTESIAN_POINT('Origin',(0.,0.2,0.));
#396=CARTESIAN_POINT('',(-7.5,0.2,-9.18485099360515E-16));
#397=CARTESIAN_POINT('Origin',(0.,0.2,0.));
#398=CARTESIAN_POINT('Origin',(0.,0.2,0.));
#399=CARTESIAN_POINT('Origin',(0.,0.3,0.));
#400=CARTESIAN_POINT('Origin',(0.,0.2,0.));
#401=CARTESIAN_POINT('',(-8.93992163377568E-16,0.,-7.3));
#402=CARTESIAN_POINT('Origin',(-8.93992163377568E-16,0.2,-7.3));
#403=CARTESIAN_POINT('',(-7.3,0.,8.93992163377568E-16));
#404=CARTESIAN_POINT('Origin',(0.,0.,0.));
#405=CARTESIAN_POINT('Origin',(0.,0.,0.));
#406=CARTESIAN_POINT('Origin',(0.,0.,0.));
#407=CARTESIAN_POINT('Ctrl Pts',(6.31164124106322,0.,0.302695403564991));
#408=CARTESIAN_POINT('Ctrl Pts',(6.01164124106322,0.,0.302695403564991));
#409=CARTESIAN_POINT('Ctrl Pts',(6.01164124106322,0.,0.00269540356499065));
#410=CARTESIAN_POINT('Ctrl Pts',(6.01164124106322,0.,-0.29730459643501));
#411=CARTESIAN_POINT('Ctrl Pts',(6.31164124106322,0.,-0.29730459643501));
#412=CARTESIAN_POINT('Ctrl Pts',(6.61164124106322,0.,-0.29730459643501));
#413=CARTESIAN_POINT('Ctrl Pts',(6.61164124106322,0.,0.00269540356499065));
#414=CARTESIAN_POINT('Ctrl Pts',(6.61164124106322,0.,0.302695403564991));
#415=CARTESIAN_POINT('Ctrl Pts',(6.31164124106322,0.,0.302695403564991));
#416=CARTESIAN_POINT('Ctrl Pts',(6.31164124106322,-0.25,0.302695403564991));
#417=CARTESIAN_POINT('Ctrl Pts',(6.01164124106322,-0.25,0.302695403564991));
#418=CARTESIAN_POINT('Ctrl Pts',(6.01164124106322,-0.25,0.00269540356499065));
#419=CARTESIAN_POINT('Ctrl Pts',(6.01164124106322,-0.25,-0.29730459643501));
#420=CARTESIAN_POINT('Ctrl Pts',(6.31164124106322,-0.25,-0.29730459643501));
#421=CARTESIAN_POINT('Ctrl Pts',(6.61164124106322,-0.25,-0.29730459643501));
#422=CARTESIAN_POINT('Ctrl Pts',(6.61164124106322,-0.25,0.00269540356499065));
#423=CARTESIAN_POINT('Ctrl Pts',(6.61164124106322,-0.25,0.302695403564991));
#424=CARTESIAN_POINT('Ctrl Pts',(6.31164124106322,-0.25,0.302695403564991));
#425=CARTESIAN_POINT('Ctrl Pts',(6.31164124106322,-0.25,0.0526954035649907));
#426=CARTESIAN_POINT('Ctrl Pts',(6.26164124106322,-0.25,0.0526954035649907));
#427=CARTESIAN_POINT('Ctrl Pts',(6.26164124106322,-0.25,0.00269540356499065));
#428=CARTESIAN_POINT('Ctrl Pts',(6.26164124106322,-0.25,-0.0473045964350094));
#429=CARTESIAN_POINT('Ctrl Pts',(6.31164124106322,-0.25,-0.0473045964350094));
#430=CARTESIAN_POINT('Ctrl Pts',(6.36164124106322,-0.25,-0.0473045964350094));
#431=CARTESIAN_POINT('Ctrl Pts',(6.36164124106322,-0.25,0.00269540356499065));
#432=CARTESIAN_POINT('Ctrl Pts',(6.36164124106322,-0.25,0.0526954035649907));
#433=CARTESIAN_POINT('Ctrl Pts',(6.31164124106322,-0.25,0.0526954035649907));
#434=CARTESIAN_POINT('',(6.26164124106322,-0.25,0.00269540356499066));
#435=CARTESIAN_POINT('',(6.31164124106322,-0.25,0.0526954035649909));
#436=CARTESIAN_POINT('Origin',(6.31164124106322,-0.25,0.00269540356499065));
#437=CARTESIAN_POINT('',(6.31164124106322,0.,0.302695403564991));
#438=CARTESIAN_POINT('Origin',(6.31164124106322,0.,0.0526954035649909));
#439=CARTESIAN_POINT('',(6.01164124106322,0.,0.00269540356499069));
#440=CARTESIAN_POINT('Origin',(6.31164124106322,0.,0.00269540356499065));
#441=CARTESIAN_POINT('Origin',(6.31164124106322,0.,0.00269540356499065));
#442=CARTESIAN_POINT('Origin',(6.31164124106322,-0.25,0.00269540356499065));
#443=CARTESIAN_POINT('Origin',(6.31164124106322,-0.25,0.00269540356499065));
#444=CARTESIAN_POINT('Origin',(6.31164124106322,0.,0.00269540356499065));
#445=CARTESIAN_POINT('Ctrl Pts',(3.24107995266847,0.,0.949129359016517));
#446=CARTESIAN_POINT('Ctrl Pts',(2.94107995266847,0.,0.949129359016517));
#447=CARTESIAN_POINT('Ctrl Pts',(2.94107995266847,0.,0.649129359016517));
#448=CARTESIAN_POINT('Ctrl Pts',(2.94107995266847,0.,0.349129359016517));
#449=CARTESIAN_POINT('Ctrl Pts',(3.24107995266847,0.,0.349129359016517));
#450=CARTESIAN_POINT('Ctrl Pts',(3.54107995266847,0.,0.349129359016517));
#451=CARTESIAN_POINT('Ctrl Pts',(3.54107995266847,0.,0.649129359016517));
#452=CARTESIAN_POINT('Ctrl Pts',(3.54107995266847,0.,0.949129359016517));
#453=CARTESIAN_POINT('Ctrl Pts',(3.24107995266847,0.,0.949129359016517));
#454=CARTESIAN_POINT('Ctrl Pts',(3.24107995266847,-0.25,0.949129359016517));
#455=CARTESIAN_POINT('Ctrl Pts',(2.94107995266847,-0.25,0.949129359016517));
#456=CARTESIAN_POINT('Ctrl Pts',(2.94107995266847,-0.25,0.649129359016517));
#457=CARTESIAN_POINT('Ctrl Pts',(2.94107995266847,-0.25,0.349129359016517));
#458=CARTESIAN_POINT('Ctrl Pts',(3.24107995266847,-0.25,0.349129359016517));
#459=CARTESIAN_POINT('Ctrl Pts',(3.54107995266847,-0.25,0.349129359016517));
#460=CARTESIAN_POINT('Ctrl Pts',(3.54107995266847,-0.25,0.649129359016517));
#461=CARTESIAN_POINT('Ctrl Pts',(3.54107995266847,-0.25,0.949129359016517));
#462=CARTESIAN_POINT('Ctrl Pts',(3.24107995266847,-0.25,0.949129359016517));
#463=CARTESIAN_POINT('Ctrl Pts',(3.24107995266847,-0.25,0.699129359016517));
#464=CARTESIAN_POINT('Ctrl Pts',(3.19107995266847,-0.25,0.699129359016517));
#465=CARTESIAN_POINT('Ctrl Pts',(3.19107995266847,-0.25,0.649129359016517));
#466=CARTESIAN_POINT('Ctrl Pts',(3.19107995266847,-0.25,0.599129359016517));
#467=CARTESIAN_POINT('Ctrl Pts',(3.24107995266847,-0.25,0.599129359016517));
#468=CARTESIAN_POINT('Ctrl Pts',(3.29107995266847,-0.25,0.599129359016517));
#469=CARTESIAN_POINT('Ctrl Pts',(3.29107995266847,-0.25,0.649129359016517));
#470=CARTESIAN_POINT('Ctrl Pts',(3.29107995266847,-0.25,0.699129359016517));
#471=CARTESIAN_POINT('Ctrl Pts',(3.24107995266847,-0.25,0.699129359016517));
#472=CARTESIAN_POINT('',(3.19107995266847,-0.25,0.649129359016517));
#473=CARTESIAN_POINT('',(3.24107995266847,-0.25,0.699129359016517));
#474=CARTESIAN_POINT('Origin',(3.24107995266847,-0.25,0.649129359016517));
#475=CARTESIAN_POINT('',(3.24107995266847,0.,0.949129359016517));
#476=CARTESIAN_POINT('Origin',(3.24107995266847,0.,0.699129359016517));
#477=CARTESIAN_POINT('',(2.94107995266847,0.,0.649129359016517));
#478=CARTESIAN_POINT('Origin',(3.24107995266847,0.,0.649129359016517));
#479=CARTESIAN_POINT('Origin',(3.24107995266847,0.,0.649129359016517));
#480=CARTESIAN_POINT('Origin',(3.24107995266847,-0.25,0.649129359016517));
#481=CARTESIAN_POINT('Origin',(3.24107995266847,-0.25,0.649129359016517));
#482=CARTESIAN_POINT('Origin',(3.24107995266847,0.,0.649129359016517));
#483=UNCERTAINTY_MEASURE_WITH_UNIT(LENGTH_MEASURE(0.01),#487,
'DISTANCE_ACCURACY_VALUE',
'Maximum model space distance between geometric entities at asserted c
onnectivities');
#484=UNCERTAINTY_MEASURE_WITH_UNIT(LENGTH_MEASURE(0.01),#487,
'DISTANCE_ACCURACY_VALUE',
'Maximum model space distance between geometric entities at asserted c
onnectivities');
#485=(
GEOMETRIC_REPRESENTATION_CONTEXT(3)
GLOBAL_UNCERTAINTY_ASSIGNED_CONTEXT((#483))
GLOBAL_UNIT_ASSIGNED_CONTEXT((#487,#489,#490))
REPRESENTATION_CONTEXT('','3D')
);
#486=(
GEOMETRIC_REPRESENTATION_CONTEXT(3)
GLOBAL_UNCERTAINTY_ASSIGNED_CONTEXT((#484))
GLOBAL_UNIT_ASSIGNED_CONTEXT((#487,#489,#490))
REPRESENTATION_CONTEXT('','3D')
);
#487=(
LENGTH_UNIT()
NAMED_UNIT(*)
SI_UNIT(.MILLI.,.METRE.)
);
#488=(
LENGTH_UNIT()
NAMED_UNIT(*)
SI_UNIT($,.METRE.)
);
#489=(
NAMED_UNIT(*)
PLANE_ANGLE_UNIT()
SI_UNIT($,.RADIAN.)
);
#490=(
NAMED_UNIT(*)
SI_UNIT($,.STERADIAN.)
SOLID_ANGLE_UNIT()
);
#491=SHAPE_DEFINITION_REPRESENTATION(#492,#493);
#492=PRODUCT_DEFINITION_SHAPE('',$,#495);
#493=SHAPE_REPRESENTATION('',(#243),#485);
#494=PRODUCT_DEFINITION_CONTEXT('part definition',#499,'design');
#495=PRODUCT_DEFINITION('Murata Piezo 7BB-15','Murata Piezo 7BB-15 v2',
#496,#494);
#496=PRODUCT_DEFINITION_FORMATION('',$,#501);
#497=PRODUCT_RELATED_PRODUCT_CATEGORY('Murata Piezo 7BB-15 v2',
'Murata Piezo 7BB-15 v2',(#501));
#498=APPLICATION_PROTOCOL_DEFINITION('international standard',
'automotive_design',2009,#499);
#499=APPLICATION_CONTEXT(
'Core Data for Automotive Mechanical Design Process');
#500=PRODUCT_CONTEXT('part definition',#499,'mechanical');
#501=PRODUCT('Murata Piezo 7BB-15','Murata Piezo 7BB-15 v2',$,(#500));
#502=PRESENTATION_STYLE_ASSIGNMENT((#506));
#503=PRESENTATION_STYLE_ASSIGNMENT((#507));
#504=PRESENTATION_STYLE_ASSIGNMENT((#508));
#505=PRESENTATION_STYLE_ASSIGNMENT((#509));
#506=SURFACE_STYLE_USAGE(.BOTH.,#510);
#507=SURFACE_STYLE_USAGE(.BOTH.,#511);
#508=SURFACE_STYLE_USAGE(.BOTH.,#512);
#509=SURFACE_STYLE_USAGE(.BOTH.,#513);
#510=SURFACE_SIDE_STYLE('',(#514));
#511=SURFACE_SIDE_STYLE('',(#515));
#512=SURFACE_SIDE_STYLE('',(#516));
#513=SURFACE_SIDE_STYLE('',(#517));
#514=SURFACE_STYLE_FILL_AREA(#518);
#515=SURFACE_STYLE_FILL_AREA(#519);
#516=SURFACE_STYLE_FILL_AREA(#520);
#517=SURFACE_STYLE_FILL_AREA(#521);
#518=FILL_AREA_STYLE('Steel - Satin',(#522));
#519=FILL_AREA_STYLE('Chrome',(#523));
#520=FILL_AREA_STYLE('Bronze - Patina',(#524));
#521=FILL_AREA_STYLE('Brass - Matte',(#525));
#522=FILL_AREA_STYLE_COLOUR('Steel - Satin',#526);
#523=FILL_AREA_STYLE_COLOUR('Chrome',#527);
#524=FILL_AREA_STYLE_COLOUR('Bronze - Patina',#528);
#525=FILL_AREA_STYLE_COLOUR('Brass - Matte',#529);
#526=COLOUR_RGB('Steel - Satin',0.627450980392157,0.627450980392157,0.627450980392157);
#527=COLOUR_RGB('Chrome',0.768627450980392,0.772549019607843,0.768627450980392);
#528=COLOUR_RGB('Bronze - Patina',0.831372549019608,0.733333333333333,0.627450980392157);
#529=COLOUR_RGB('Brass - Matte',0.952941176470588,0.796078431372549,0.486274509803922);
ENDSEC;
END-ISO-10303-21;
