ISO-10303-21;
HEADER;
FILE_DESCRIPTION(('FreeCAD Model'),'2;1');
FILE_NAME('Open CASCADE Shape Model','2026-06-24T18:16:58',(''),(''),
  'Open CASCADE STEP processor 7.8','FreeCAD','Unknown');
FILE_SCHEMA((
'AP242_MANAGED_MODEL_BASED_3D_ENGINEERING_MIM_LF. {1 0 10303 442 1 1 4 
}'));
ENDSEC;
DATA;
#1 = APPLICATION_PROTOCOL_DEFINITION('international standard',
  'ap242_managed_model_based_3d_engineering',2013,#2);
#2 = APPLICATION_CONTEXT('Managed model based 3d engineering');
#3 = SHAPE_DEFINITION_REPRESENTATION(#4,#10);
#4 = PRODUCT_DEFINITION_SHAPE('','',#5);
#5 = PRODUCT_DEFINITION('design','',#6,#9);
#6 = PRODUCT_DEFINITION_FORMATION('','',#7);
#7 = PRODUCT('Mirrored','Mirrored','',(#8));
#8 = PRODUCT_CONTEXT('',#2,'mechanical');
#9 = PRODUCT_DEFINITION_CONTEXT('part definition',#2,'design');
#10 = ADVANCED_BREP_SHAPE_REPRESENTATION('',(#11,#15),#500);
#11 = AXIS2_PLACEMENT_3D('',#12,#13,#14);
#12 = CARTESIAN_POINT('',(0.,0.,0.));
#13 = DIRECTION('',(0.,0.,1.));
#14 = DIRECTION('',(1.,0.,-0.));
#15 = MANIFOLD_SOLID_BREP('',#16);
#16 = CLOSED_SHELL('',(#17,#75,#107,#139,#154,#169,#227,#259,#291,#306,
    #337,#368,#383,#414,#436,#458,#483));
#17 = ADVANCED_FACE('',(#18),#70,.F.);
#18 = FACE_BOUND('',#19,.T.);
#19 = EDGE_LOOP('',(#20,#31,#39,#47,#56,#64));
#20 = ORIENTED_EDGE('',*,*,#21,.F.);
#21 = EDGE_CURVE('',#22,#24,#26,.T.);
#22 = VERTEX_POINT('',#23);
#23 = CARTESIAN_POINT('',(2.4,-6.,0.1));
#24 = VERTEX_POINT('',#25);
#25 = CARTESIAN_POINT('',(2.4,0.,1.E-01));
#26 = CIRCLE('',#27,3.);
#27 = AXIS2_PLACEMENT_3D('',#28,#29,#30);
#28 = CARTESIAN_POINT('',(2.4,-3.,0.100000000006));
#29 = DIRECTION('',(-1.,0.,0.));
#30 = DIRECTION('',(0.,-1.,0.));
#31 = ORIENTED_EDGE('',*,*,#32,.T.);
#32 = EDGE_CURVE('',#22,#33,#35,.T.);
#33 = VERTEX_POINT('',#34);
#34 = CARTESIAN_POINT('',(2.4,-6.,0.));
#35 = LINE('',#36,#37);
#36 = CARTESIAN_POINT('',(2.4,-6.,0.1));
#37 = VECTOR('',#38,1.);
#38 = DIRECTION('',(0.,0.,-1.));
#39 = ORIENTED_EDGE('',*,*,#40,.T.);
#40 = EDGE_CURVE('',#33,#41,#43,.T.);
#41 = VERTEX_POINT('',#42);
#42 = CARTESIAN_POINT('',(2.4,-4.55,0.));
#43 = LINE('',#44,#45);
#44 = CARTESIAN_POINT('',(2.4,-6.,0.));
#45 = VECTOR('',#46,1.);
#46 = DIRECTION('',(0.,1.,-0.));
#47 = ORIENTED_EDGE('',*,*,#48,.T.);
#48 = EDGE_CURVE('',#41,#49,#51,.T.);
#49 = VERTEX_POINT('',#50);
#50 = CARTESIAN_POINT('',(2.4,-1.45,9.49101248047E-17));
#51 = CIRCLE('',#52,1.55);
#52 = AXIS2_PLACEMENT_3D('',#53,#54,#55);
#53 = CARTESIAN_POINT('',(2.4,-3.,0.));
#54 = DIRECTION('',(-1.,0.,0.));
#55 = DIRECTION('',(0.,-1.,0.));
#56 = ORIENTED_EDGE('',*,*,#57,.T.);
#57 = EDGE_CURVE('',#49,#58,#60,.T.);
#58 = VERTEX_POINT('',#59);
#59 = CARTESIAN_POINT('',(2.4,-3.101961560446E-20,0.));
#60 = LINE('',#61,#62);
#61 = CARTESIAN_POINT('',(2.4,-6.,0.));
#62 = VECTOR('',#63,1.);
#63 = DIRECTION('',(0.,1.,-0.));
#64 = ORIENTED_EDGE('',*,*,#65,.T.);
#65 = EDGE_CURVE('',#58,#24,#66,.T.);
#66 = LINE('',#67,#68);
#67 = CARTESIAN_POINT('',(2.4,-6.204219729765E-20,0.));
#68 = VECTOR('',#69,1.);
#69 = DIRECTION('',(0.,6.204219729765E-19,1.));
#70 = PLANE('',#71);
#71 = AXIS2_PLACEMENT_3D('',#72,#73,#74);
#72 = CARTESIAN_POINT('',(2.4,-3.,1.085424820274));
#73 = DIRECTION('',(-1.,-0.,-0.));
#74 = DIRECTION('',(0.,0.,-1.));
#75 = ADVANCED_FACE('',(#76),#102,.T.);
#76 = FACE_BOUND('',#77,.T.);
#77 = EDGE_LOOP('',(#78,#86,#87,#95));
#78 = ORIENTED_EDGE('',*,*,#79,.T.);
#79 = EDGE_CURVE('',#80,#22,#82,.T.);
#80 = VERTEX_POINT('',#81);
#81 = CARTESIAN_POINT('',(0.4,-6.,0.1));
#82 = LINE('',#83,#84);
#83 = CARTESIAN_POINT('',(0.4,-6.,0.1));
#84 = VECTOR('',#85,1.);
#85 = DIRECTION('',(1.,0.,0.));
#86 = ORIENTED_EDGE('',*,*,#21,.T.);
#87 = ORIENTED_EDGE('',*,*,#88,.F.);
#88 = EDGE_CURVE('',#89,#24,#91,.T.);
#89 = VERTEX_POINT('',#90);
#90 = CARTESIAN_POINT('',(0.4,1.480297366167E-17,1.E-01));
#91 = LINE('',#92,#93);
#92 = CARTESIAN_POINT('',(0.4,0.,1.E-01));
#93 = VECTOR('',#94,1.);
#94 = DIRECTION('',(1.,0.,0.));
#95 = ORIENTED_EDGE('',*,*,#96,.F.);
#96 = EDGE_CURVE('',#80,#89,#97,.T.);
#97 = CIRCLE('',#98,3.);
#98 = AXIS2_PLACEMENT_3D('',#99,#100,#101);
#99 = CARTESIAN_POINT('',(0.4,-3.,0.100000000006));
#100 = DIRECTION('',(-1.,0.,0.));
#101 = DIRECTION('',(0.,-1.,0.));
#102 = CYLINDRICAL_SURFACE('',#103,3.);
#103 = AXIS2_PLACEMENT_3D('',#104,#105,#106);
#104 = CARTESIAN_POINT('',(0.4,-3.,0.100000000006));
#105 = DIRECTION('',(-1.,-0.,-0.));
#106 = DIRECTION('',(-0.,-1.,-0.));
#107 = ADVANCED_FACE('',(#108),#134,.T.);
#108 = FACE_BOUND('',#109,.T.);
#109 = EDGE_LOOP('',(#110,#118,#127,#133));
#110 = ORIENTED_EDGE('',*,*,#111,.T.);
#111 = EDGE_CURVE('',#41,#112,#114,.T.);
#112 = VERTEX_POINT('',#113);
#113 = CARTESIAN_POINT('',(27.4,-4.55,0.));
#114 = LINE('',#115,#116);
#115 = CARTESIAN_POINT('',(2.4,-4.55,0.));
#116 = VECTOR('',#117,1.);
#117 = DIRECTION('',(1.,0.,0.));
#118 = ORIENTED_EDGE('',*,*,#119,.T.);
#119 = EDGE_CURVE('',#112,#120,#122,.T.);
#120 = VERTEX_POINT('',#121);
#121 = CARTESIAN_POINT('',(27.4,-1.45,9.49101248047E-17));
#122 = CIRCLE('',#123,1.55);
#123 = AXIS2_PLACEMENT_3D('',#124,#125,#126);
#124 = CARTESIAN_POINT('',(27.4,-3.,0.));
#125 = DIRECTION('',(-1.,0.,0.));
#126 = DIRECTION('',(0.,-1.,0.));
#127 = ORIENTED_EDGE('',*,*,#128,.F.);
#128 = EDGE_CURVE('',#49,#120,#129,.T.);
#129 = LINE('',#130,#131);
#130 = CARTESIAN_POINT('',(2.4,-1.45,9.49101248047E-17));
#131 = VECTOR('',#132,1.);
#132 = DIRECTION('',(1.,0.,0.));
#133 = ORIENTED_EDGE('',*,*,#48,.F.);
#134 = CYLINDRICAL_SURFACE('',#135,1.55);
#135 = AXIS2_PLACEMENT_3D('',#136,#137,#138);
#136 = CARTESIAN_POINT('',(2.4,-3.,0.));
#137 = DIRECTION('',(-1.,-0.,-0.));
#138 = DIRECTION('',(-0.,-1.,-0.));
#139 = ADVANCED_FACE('',(#140),#149,.F.);
#140 = FACE_BOUND('',#141,.T.);
#141 = EDGE_LOOP('',(#142,#148));
#142 = ORIENTED_EDGE('',*,*,#143,.T.);
#143 = EDGE_CURVE('',#112,#120,#144,.T.);
#144 = LINE('',#145,#146);
#145 = CARTESIAN_POINT('',(27.4,-4.55,0.));
#146 = VECTOR('',#147,1.);
#147 = DIRECTION('',(0.,1.,-0.));
#148 = ORIENTED_EDGE('',*,*,#119,.F.);
#149 = PLANE('',#150);
#150 = AXIS2_PLACEMENT_3D('',#151,#152,#153);
#151 = CARTESIAN_POINT('',(27.4,-3.,0.536935750346));
#152 = DIRECTION('',(-1.,-0.,-0.));
#153 = DIRECTION('',(0.,0.,-1.));
#154 = ADVANCED_FACE('',(#155),#164,.T.);
#155 = FACE_BOUND('',#156,.F.);
#156 = EDGE_LOOP('',(#157,#158));
#157 = ORIENTED_EDGE('',*,*,#96,.F.);
#158 = ORIENTED_EDGE('',*,*,#159,.F.);
#159 = EDGE_CURVE('',#89,#80,#160,.T.);
#160 = LINE('',#161,#162);
#161 = CARTESIAN_POINT('',(0.4,2.22044604925E-17,0.1));
#162 = VECTOR('',#163,1.);
#163 = DIRECTION('',(0.,-1.,2.22044604925E-16));
#164 = PLANE('',#165);
#165 = AXIS2_PLACEMENT_3D('',#166,#167,#168);
#166 = CARTESIAN_POINT('',(0.4,-3.,1.085424820274));
#167 = DIRECTION('',(-1.,-0.,-0.));
#168 = DIRECTION('',(0.,0.,-1.));
#169 = ADVANCED_FACE('',(#170),#222,.F.);
#170 = FACE_BOUND('',#171,.F.);
#171 = EDGE_LOOP('',(#172,#183,#191,#199,#208,#216));
#172 = ORIENTED_EDGE('',*,*,#173,.F.);
#173 = EDGE_CURVE('',#174,#176,#178,.T.);
#174 = VERTEX_POINT('',#175);
#175 = CARTESIAN_POINT('',(-2.4,-6.,0.1));
#176 = VERTEX_POINT('',#177);
#177 = CARTESIAN_POINT('',(-2.4,0.,1.E-01));
#178 = CIRCLE('',#179,3.);
#179 = AXIS2_PLACEMENT_3D('',#180,#181,#182);
#180 = CARTESIAN_POINT('',(-2.4,-3.,0.100000000006));
#181 = DIRECTION('',(-1.,0.,0.));
#182 = DIRECTION('',(0.,-1.,0.));
#183 = ORIENTED_EDGE('',*,*,#184,.T.);
#184 = EDGE_CURVE('',#174,#185,#187,.T.);
#185 = VERTEX_POINT('',#186);
#186 = CARTESIAN_POINT('',(-2.4,-6.,0.));
#187 = LINE('',#188,#189);
#188 = CARTESIAN_POINT('',(-2.4,-6.,0.1));
#189 = VECTOR('',#190,1.);
#190 = DIRECTION('',(0.,0.,-1.));
#191 = ORIENTED_EDGE('',*,*,#192,.T.);
#192 = EDGE_CURVE('',#185,#193,#195,.T.);
#193 = VERTEX_POINT('',#194);
#194 = CARTESIAN_POINT('',(-2.4,-4.55,0.));
#195 = LINE('',#196,#197);
#196 = CARTESIAN_POINT('',(-2.4,-6.,0.));
#197 = VECTOR('',#198,1.);
#198 = DIRECTION('',(0.,1.,0.));
#199 = ORIENTED_EDGE('',*,*,#200,.T.);
#200 = EDGE_CURVE('',#193,#201,#203,.T.);
#201 = VERTEX_POINT('',#202);
#202 = CARTESIAN_POINT('',(-2.4,-1.45,9.49101248047E-17));
#203 = CIRCLE('',#204,1.55);
#204 = AXIS2_PLACEMENT_3D('',#205,#206,#207);
#205 = CARTESIAN_POINT('',(-2.4,-3.,0.));
#206 = DIRECTION('',(-1.,0.,0.));
#207 = DIRECTION('',(0.,-1.,0.));
#208 = ORIENTED_EDGE('',*,*,#209,.T.);
#209 = EDGE_CURVE('',#201,#210,#212,.T.);
#210 = VERTEX_POINT('',#211);
#211 = CARTESIAN_POINT('',(-2.4,-3.101961560446E-20,0.));
#212 = LINE('',#213,#214);
#213 = CARTESIAN_POINT('',(-2.4,-6.,0.));
#214 = VECTOR('',#215,1.);
#215 = DIRECTION('',(0.,1.,0.));
#216 = ORIENTED_EDGE('',*,*,#217,.T.);
#217 = EDGE_CURVE('',#210,#176,#218,.T.);
#218 = LINE('',#219,#220);
#219 = CARTESIAN_POINT('',(-2.4,-6.204219729765E-20,0.));
#220 = VECTOR('',#221,1.);
#221 = DIRECTION('',(0.,6.204219729765E-19,1.));
#222 = PLANE('',#223);
#223 = AXIS2_PLACEMENT_3D('',#224,#225,#226);
#224 = CARTESIAN_POINT('',(-2.4,-3.,1.085424820274));
#225 = DIRECTION('',(1.,0.,0.));
#226 = DIRECTION('',(0.,0.,1.));
#227 = ADVANCED_FACE('',(#228),#254,.T.);
#228 = FACE_BOUND('',#229,.F.);
#229 = EDGE_LOOP('',(#230,#238,#239,#247));
#230 = ORIENTED_EDGE('',*,*,#231,.T.);
#231 = EDGE_CURVE('',#232,#174,#234,.T.);
#232 = VERTEX_POINT('',#233);
#233 = CARTESIAN_POINT('',(-0.4,-6.,0.1));
#234 = LINE('',#235,#236);
#235 = CARTESIAN_POINT('',(-0.4,-6.,0.1));
#236 = VECTOR('',#237,1.);
#237 = DIRECTION('',(-1.,0.,0.));
#238 = ORIENTED_EDGE('',*,*,#173,.T.);
#239 = ORIENTED_EDGE('',*,*,#240,.F.);
#240 = EDGE_CURVE('',#241,#176,#243,.T.);
#241 = VERTEX_POINT('',#242);
#242 = CARTESIAN_POINT('',(-0.4,1.480297366167E-17,1.E-01));
#243 = LINE('',#244,#245);
#244 = CARTESIAN_POINT('',(-0.4,0.,1.E-01));
#245 = VECTOR('',#246,1.);
#246 = DIRECTION('',(-1.,0.,0.));
#247 = ORIENTED_EDGE('',*,*,#248,.F.);
#248 = EDGE_CURVE('',#232,#241,#249,.T.);
#249 = CIRCLE('',#250,3.);
#250 = AXIS2_PLACEMENT_3D('',#251,#252,#253);
#251 = CARTESIAN_POINT('',(-0.4,-3.,0.100000000006));
#252 = DIRECTION('',(-1.,0.,0.));
#253 = DIRECTION('',(0.,-1.,0.));
#254 = CYLINDRICAL_SURFACE('',#255,3.);
#255 = AXIS2_PLACEMENT_3D('',#256,#257,#258);
#256 = CARTESIAN_POINT('',(-0.4,-3.,0.100000000006));
#257 = DIRECTION('',(1.,0.,0.));
#258 = DIRECTION('',(0.,-1.,0.));
#259 = ADVANCED_FACE('',(#260),#286,.T.);
#260 = FACE_BOUND('',#261,.F.);
#261 = EDGE_LOOP('',(#262,#270,#279,#285));
#262 = ORIENTED_EDGE('',*,*,#263,.T.);
#263 = EDGE_CURVE('',#193,#264,#266,.T.);
#264 = VERTEX_POINT('',#265);
#265 = CARTESIAN_POINT('',(-27.4,-4.55,0.));
#266 = LINE('',#267,#268);
#267 = CARTESIAN_POINT('',(-2.4,-4.55,0.));
#268 = VECTOR('',#269,1.);
#269 = DIRECTION('',(-1.,0.,0.));
#270 = ORIENTED_EDGE('',*,*,#271,.T.);
#271 = EDGE_CURVE('',#264,#272,#274,.T.);
#272 = VERTEX_POINT('',#273);
#273 = CARTESIAN_POINT('',(-27.4,-1.45,9.49101248047E-17));
#274 = CIRCLE('',#275,1.55);
#275 = AXIS2_PLACEMENT_3D('',#276,#277,#278);
#276 = CARTESIAN_POINT('',(-27.4,-3.,0.));
#277 = DIRECTION('',(-1.,0.,0.));
#278 = DIRECTION('',(0.,-1.,0.));
#279 = ORIENTED_EDGE('',*,*,#280,.F.);
#280 = EDGE_CURVE('',#201,#272,#281,.T.);
#281 = LINE('',#282,#283);
#282 = CARTESIAN_POINT('',(-2.4,-1.45,9.49101248047E-17));
#283 = VECTOR('',#284,1.);
#284 = DIRECTION('',(-1.,0.,0.));
#285 = ORIENTED_EDGE('',*,*,#200,.F.);
#286 = CYLINDRICAL_SURFACE('',#287,1.55);
#287 = AXIS2_PLACEMENT_3D('',#288,#289,#290);
#288 = CARTESIAN_POINT('',(-2.4,-3.,0.));
#289 = DIRECTION('',(1.,0.,0.));
#290 = DIRECTION('',(0.,-1.,0.));
#291 = ADVANCED_FACE('',(#292),#301,.T.);
#292 = FACE_BOUND('',#293,.T.);
#293 = EDGE_LOOP('',(#294,#295));
#294 = ORIENTED_EDGE('',*,*,#248,.F.);
#295 = ORIENTED_EDGE('',*,*,#296,.F.);
#296 = EDGE_CURVE('',#241,#232,#297,.T.);
#297 = LINE('',#298,#299);
#298 = CARTESIAN_POINT('',(-0.4,2.22044604925E-17,0.1));
#299 = VECTOR('',#300,1.);
#300 = DIRECTION('',(0.,-1.,2.22044604925E-16));
#301 = PLANE('',#302);
#302 = AXIS2_PLACEMENT_3D('',#303,#304,#305);
#303 = CARTESIAN_POINT('',(-0.4,-3.,1.085424820274));
#304 = DIRECTION('',(1.,0.,0.));
#305 = DIRECTION('',(0.,0.,1.));
#306 = ADVANCED_FACE('',(#307),#332,.T.);
#307 = FACE_BOUND('',#308,.T.);
#308 = EDGE_LOOP('',(#309,#310,#318,#326));
#309 = ORIENTED_EDGE('',*,*,#296,.T.);
#310 = ORIENTED_EDGE('',*,*,#311,.T.);
#311 = EDGE_CURVE('',#232,#312,#314,.T.);
#312 = VERTEX_POINT('',#313);
#313 = CARTESIAN_POINT('',(-4.E-02,-6.,0.1));
#314 = LINE('',#315,#316);
#315 = CARTESIAN_POINT('',(-0.4,-6.,0.1));
#316 = VECTOR('',#317,1.);
#317 = DIRECTION('',(1.,0.,0.));
#318 = ORIENTED_EDGE('',*,*,#319,.F.);
#319 = EDGE_CURVE('',#320,#312,#322,.T.);
#320 = VERTEX_POINT('',#321);
#321 = CARTESIAN_POINT('',(-4.E-02,2.22044604925E-17,0.1));
#322 = LINE('',#323,#324);
#323 = CARTESIAN_POINT('',(-4.E-02,2.22044604925E-17,0.1));
#324 = VECTOR('',#325,1.);
#325 = DIRECTION('',(0.,-1.,2.22044604925E-16));
#326 = ORIENTED_EDGE('',*,*,#327,.F.);
#327 = EDGE_CURVE('',#241,#320,#328,.T.);
#328 = LINE('',#329,#330);
#329 = CARTESIAN_POINT('',(-0.4,2.22044604925E-17,0.1));
#330 = VECTOR('',#331,1.);
#331 = DIRECTION('',(1.,0.,0.));
#332 = PLANE('',#333);
#333 = AXIS2_PLACEMENT_3D('',#334,#335,#336);
#334 = CARTESIAN_POINT('',(-0.4,2.22044604925E-17,0.1));
#335 = DIRECTION('',(0.,2.22044604925E-16,1.));
#336 = DIRECTION('',(1.,0.,0.));
#337 = ADVANCED_FACE('',(#338),#363,.T.);
#338 = FACE_BOUND('',#339,.T.);
#339 = EDGE_LOOP('',(#340,#341,#349,#357));
#340 = ORIENTED_EDGE('',*,*,#319,.T.);
#341 = ORIENTED_EDGE('',*,*,#342,.T.);
#342 = EDGE_CURVE('',#312,#343,#345,.T.);
#343 = VERTEX_POINT('',#344);
#344 = CARTESIAN_POINT('',(0.,-6.,6.E-02));
#345 = LINE('',#346,#347);
#346 = CARTESIAN_POINT('',(-4.E-02,-6.,0.1));
#347 = VECTOR('',#348,1.);
#348 = DIRECTION('',(0.707106781187,-1.570092458684E-16,-0.707106781187)
  );
#349 = ORIENTED_EDGE('',*,*,#350,.F.);
#350 = EDGE_CURVE('',#351,#343,#353,.T.);
#351 = VERTEX_POINT('',#352);
#352 = CARTESIAN_POINT('',(0.,1.33226762955E-17,6.E-02));
#353 = LINE('',#354,#355);
#354 = CARTESIAN_POINT('',(0.,1.33226762955E-17,6.E-02));
#355 = VECTOR('',#356,1.);
#356 = DIRECTION('',(0.,-1.,2.22044604925E-16));
#357 = ORIENTED_EDGE('',*,*,#358,.F.);
#358 = EDGE_CURVE('',#320,#351,#359,.T.);
#359 = LINE('',#360,#361);
#360 = CARTESIAN_POINT('',(-4.E-02,2.22044604925E-17,0.1));
#361 = VECTOR('',#362,1.);
#362 = DIRECTION('',(0.707106781187,-1.570092458684E-16,-0.707106781187)
  );
#363 = PLANE('',#364);
#364 = AXIS2_PLACEMENT_3D('',#365,#366,#367);
#365 = CARTESIAN_POINT('',(-4.E-02,2.22044604925E-17,0.1));
#366 = DIRECTION('',(0.707106781187,1.570092458684E-16,0.707106781187));
#367 = DIRECTION('',(0.707106781187,-1.570092458684E-16,-0.707106781187)
  );
#368 = ADVANCED_FACE('',(#369),#378,.F.);
#369 = FACE_BOUND('',#370,.F.);
#370 = EDGE_LOOP('',(#371,#377));
#371 = ORIENTED_EDGE('',*,*,#372,.T.);
#372 = EDGE_CURVE('',#264,#272,#373,.T.);
#373 = LINE('',#374,#375);
#374 = CARTESIAN_POINT('',(-27.4,-4.55,0.));
#375 = VECTOR('',#376,1.);
#376 = DIRECTION('',(0.,1.,0.));
#377 = ORIENTED_EDGE('',*,*,#271,.F.);
#378 = PLANE('',#379);
#379 = AXIS2_PLACEMENT_3D('',#380,#381,#382);
#380 = CARTESIAN_POINT('',(-27.4,-3.,0.536935750346));
#381 = DIRECTION('',(1.,0.,0.));
#382 = DIRECTION('',(0.,0.,1.));
#383 = ADVANCED_FACE('',(#384),#409,.T.);
#384 = FACE_BOUND('',#385,.F.);
#385 = EDGE_LOOP('',(#386,#396,#402,#403));
#386 = ORIENTED_EDGE('',*,*,#387,.T.);
#387 = EDGE_CURVE('',#388,#390,#392,.T.);
#388 = VERTEX_POINT('',#389);
#389 = CARTESIAN_POINT('',(4.E-02,2.22044604925E-17,0.1));
#390 = VERTEX_POINT('',#391);
#391 = CARTESIAN_POINT('',(4.E-02,-6.,0.1));
#392 = LINE('',#393,#394);
#393 = CARTESIAN_POINT('',(4.E-02,2.22044604925E-17,0.1));
#394 = VECTOR('',#395,1.);
#395 = DIRECTION('',(0.,-1.,2.22044604925E-16));
#396 = ORIENTED_EDGE('',*,*,#397,.T.);
#397 = EDGE_CURVE('',#390,#343,#398,.T.);
#398 = LINE('',#399,#400);
#399 = CARTESIAN_POINT('',(4.E-02,-6.,0.1));
#400 = VECTOR('',#401,1.);
#401 = DIRECTION('',(-0.707106781187,-1.570092458684E-16,-0.707106781187
    ));
#402 = ORIENTED_EDGE('',*,*,#350,.F.);
#403 = ORIENTED_EDGE('',*,*,#404,.F.);
#404 = EDGE_CURVE('',#388,#351,#405,.T.);
#405 = LINE('',#406,#407);
#406 = CARTESIAN_POINT('',(4.E-02,2.22044604925E-17,0.1));
#407 = VECTOR('',#408,1.);
#408 = DIRECTION('',(-0.707106781187,-1.570092458684E-16,-0.707106781187
    ));
#409 = PLANE('',#410);
#410 = AXIS2_PLACEMENT_3D('',#411,#412,#413);
#411 = CARTESIAN_POINT('',(4.E-02,2.22044604925E-17,0.1));
#412 = DIRECTION('',(-0.707106781187,1.570092458684E-16,0.707106781187)
  );
#413 = DIRECTION('',(0.707106781187,1.570092458684E-16,0.707106781187));
#414 = ADVANCED_FACE('',(#415),#431,.T.);
#415 = FACE_BOUND('',#416,.F.);
#416 = EDGE_LOOP('',(#417,#418,#424,#425));
#417 = ORIENTED_EDGE('',*,*,#159,.T.);
#418 = ORIENTED_EDGE('',*,*,#419,.T.);
#419 = EDGE_CURVE('',#80,#390,#420,.T.);
#420 = LINE('',#421,#422);
#421 = CARTESIAN_POINT('',(0.4,-6.,0.1));
#422 = VECTOR('',#423,1.);
#423 = DIRECTION('',(-1.,0.,-0.));
#424 = ORIENTED_EDGE('',*,*,#387,.F.);
#425 = ORIENTED_EDGE('',*,*,#426,.F.);
#426 = EDGE_CURVE('',#89,#388,#427,.T.);
#427 = LINE('',#428,#429);
#428 = CARTESIAN_POINT('',(0.4,2.22044604925E-17,0.1));
#429 = VECTOR('',#430,1.);
#430 = DIRECTION('',(-1.,0.,-0.));
#431 = PLANE('',#432);
#432 = AXIS2_PLACEMENT_3D('',#433,#434,#435);
#433 = CARTESIAN_POINT('',(0.4,2.22044604925E-17,0.1));
#434 = DIRECTION('',(0.,2.22044604925E-16,1.));
#435 = DIRECTION('',(1.,0.,0.));
#436 = ADVANCED_FACE('',(#437),#453,.T.);
#437 = FACE_BOUND('',#438,.T.);
#438 = EDGE_LOOP('',(#439,#440,#441,#442,#443,#444,#445,#446,#447));
#439 = ORIENTED_EDGE('',*,*,#217,.T.);
#440 = ORIENTED_EDGE('',*,*,#240,.F.);
#441 = ORIENTED_EDGE('',*,*,#327,.T.);
#442 = ORIENTED_EDGE('',*,*,#358,.T.);
#443 = ORIENTED_EDGE('',*,*,#404,.F.);
#444 = ORIENTED_EDGE('',*,*,#426,.F.);
#445 = ORIENTED_EDGE('',*,*,#88,.T.);
#446 = ORIENTED_EDGE('',*,*,#65,.F.);
#447 = ORIENTED_EDGE('',*,*,#448,.F.);
#448 = EDGE_CURVE('',#210,#58,#449,.T.);
#449 = LINE('',#450,#451);
#450 = CARTESIAN_POINT('',(0.4,-3.101961560446E-20,0.));
#451 = VECTOR('',#452,1.);
#452 = DIRECTION('',(1.,0.,0.));
#453 = PLANE('',#454);
#454 = AXIS2_PLACEMENT_3D('',#455,#456,#457);
#455 = CARTESIAN_POINT('',(4.516251589007E-17,1.814459757133E-18,
    4.993838309737E-02));
#456 = DIRECTION('',(0.,1.,0.));
#457 = DIRECTION('',(0.,-0.,1.));
#458 = ADVANCED_FACE('',(#459),#478,.T.);
#459 = FACE_BOUND('',#460,.T.);
#460 = EDGE_LOOP('',(#461,#462,#463,#464,#465,#466,#467,#468,#469,#470,
    #471,#472));
#461 = ORIENTED_EDGE('',*,*,#192,.T.);
#462 = ORIENTED_EDGE('',*,*,#263,.T.);
#463 = ORIENTED_EDGE('',*,*,#372,.T.);
#464 = ORIENTED_EDGE('',*,*,#280,.F.);
#465 = ORIENTED_EDGE('',*,*,#209,.T.);
#466 = ORIENTED_EDGE('',*,*,#448,.T.);
#467 = ORIENTED_EDGE('',*,*,#57,.F.);
#468 = ORIENTED_EDGE('',*,*,#128,.T.);
#469 = ORIENTED_EDGE('',*,*,#143,.F.);
#470 = ORIENTED_EDGE('',*,*,#111,.F.);
#471 = ORIENTED_EDGE('',*,*,#40,.F.);
#472 = ORIENTED_EDGE('',*,*,#473,.F.);
#473 = EDGE_CURVE('',#185,#33,#474,.T.);
#474 = LINE('',#475,#476);
#475 = CARTESIAN_POINT('',(0.,-6.,1.33226762955E-15));
#476 = VECTOR('',#477,1.);
#477 = DIRECTION('',(1.,0.,0.));
#478 = PLANE('',#479);
#479 = AXIS2_PLACEMENT_3D('',#480,#481,#482);
#480 = CARTESIAN_POINT('',(-2.556434596176E-17,-3.,9.161505643155E-17));
#481 = DIRECTION('',(-0.,-0.,-1.));
#482 = DIRECTION('',(-1.,0.,0.));
#483 = ADVANCED_FACE('',(#484),#495,.T.);
#484 = FACE_BOUND('',#485,.T.);
#485 = EDGE_LOOP('',(#486,#487,#488,#489,#490,#491,#492,#493,#494));
#486 = ORIENTED_EDGE('',*,*,#473,.T.);
#487 = ORIENTED_EDGE('',*,*,#32,.F.);
#488 = ORIENTED_EDGE('',*,*,#79,.F.);
#489 = ORIENTED_EDGE('',*,*,#419,.T.);
#490 = ORIENTED_EDGE('',*,*,#397,.T.);
#491 = ORIENTED_EDGE('',*,*,#342,.F.);
#492 = ORIENTED_EDGE('',*,*,#311,.F.);
#493 = ORIENTED_EDGE('',*,*,#231,.T.);
#494 = ORIENTED_EDGE('',*,*,#184,.T.);
#495 = PLANE('',#496);
#496 = AXIS2_PLACEMENT_3D('',#497,#498,#499);
#497 = CARTESIAN_POINT('',(2.258125794503E-17,-6.,4.993838309737E-02));
#498 = DIRECTION('',(-0.,-1.,-0.));
#499 = DIRECTION('',(0.,0.,-1.));
#500 = ( GEOMETRIC_REPRESENTATION_CONTEXT(3) 
GLOBAL_UNCERTAINTY_ASSIGNED_CONTEXT((#504)) GLOBAL_UNIT_ASSIGNED_CONTEXT
((#501,#502,#503)) REPRESENTATION_CONTEXT('Context #1',
  '3D Context with UNIT and UNCERTAINTY') );
#501 = ( LENGTH_UNIT() NAMED_UNIT(*) SI_UNIT(.MILLI.,.METRE.) );
#502 = ( NAMED_UNIT(*) PLANE_ANGLE_UNIT() SI_UNIT($,.RADIAN.) );
#503 = ( NAMED_UNIT(*) SI_UNIT($,.STERADIAN.) SOLID_ANGLE_UNIT() );
#504 = UNCERTAINTY_MEASURE_WITH_UNIT(LENGTH_MEASURE(1.E-07),#501,
  'distance_accuracy_value','confusion accuracy');
#505 = PRODUCT_RELATED_PRODUCT_CATEGORY('part',$,(#7));
#506 = MECHANICAL_DESIGN_GEOMETRIC_PRESENTATION_REPRESENTATION('',(#507)
  ,#500);
#507 = STYLED_ITEM('color',(#508),#15);
#508 = PRESENTATION_STYLE_ASSIGNMENT((#509,#515));
#509 = SURFACE_STYLE_USAGE(.BOTH.,#510);
#510 = SURFACE_SIDE_STYLE('',(#511));
#511 = SURFACE_STYLE_FILL_AREA(#512);
#512 = FILL_AREA_STYLE('',(#513));
#513 = FILL_AREA_STYLE_COLOUR('',#514);
#514 = COLOUR_RGB('',0.447058818107,0.474509808674,0.501960817233);
#515 = CURVE_STYLE('',#516,POSITIVE_LENGTH_MEASURE(0.1),#517);
#516 = DRAUGHTING_PRE_DEFINED_CURVE_FONT('continuous');
#517 = COLOUR_RGB('',9.803921802644E-02,9.803921802644E-02,
  9.803921802644E-02);
ENDSEC;
END-ISO-10303-21;
